# xmcd
# Track frame offsets:
# 150
# 17345
# 39600
# 51465
# 64545
# 77267
# 108995
# 128780
# 154667
# 167760
# 182292
# 204507
# 238162
# 256807
# 278252
#
# Disc length: 4433 seconds
# Revision: 0
# Processed by: cddbd v1.4PL0 Copyright (c) Steve Scherf et al.
# Submitted via: VisiTrax 2.9.5.181 - For more info visit www.synapsa.com
#
DISCID=b3114f0f
DTITLE=Blues Basement - Ten Years
DYEAR=1998
DGENRE=Blues
TTITLE0=Basement Boogie
TTITLE1=You Said You Loved Me
TTITLE2=It`s Raining
TTITLE3=The Sun Is Shining
TTITLE4=Love Me Day And Night
TTITLE5=Chicago Nightlife
TTITLE6=It`s Over
TTITLE7=Deep Down Inside Of Me
TTITLE8=Eirik`s Shuffle
TTITLE9=The Fortune Teller
TTITLE10=Northern Lights
TTITLE11=Gone Fishing Blues
TTITLE12=Highway Blues
TTITLE13=Morning Blue
TTITLE14=Have You Ever Loved A Woman
EXTD=
EXTT0=
EXTT1=
EXTT2=
EXTT3=
EXTT4=
EXTT5=
EXTT6=
EXTT7=
EXTT8=
EXTT9=
EXTT10=
EXTT11=
EXTT12=
EXTT13=
EXTT14=
PLAYORDER=
